<svg id="kity_svg_6" xmlns="http://www.w3.org/2000/svg" xmlns:xlink="http://www.w3.org/1999/xlink" version="1.1" width="855" height="758" style="background: rgb(251, 251, 251); visibility: visible;" viewBox="0 0 855 758"><defs id="kity_defs_7"><linearGradient id="kity_linearGradient_17" x1="0" y1="0" x2="0" y2="1"><stop id="kity_stop_18" offset="0" stop-color="rgb(255, 255, 255)"></stop><stop id="kity_stop_19" offset="1" stop-color="rgb(204, 204, 204)"></stop></linearGradient><marker id="kity_marker_2" orient="auto" refX="6" refY="0" viewBox="-7 -7 14 14" markerWidth="7" markerHeight="7" markerUnits="userSpaceOnUse"><path id="kity_path_3" fill="rgb(115, 191, 118)" stroke="none" d="M6,0A6,6,0,1,1,-6,0A6,6,0,1,1,6,0"></path></marker></defs><g id="kity_g_8"><g id="minder1" text-rendering="optimize-speed"><g id="minder_connect_group1"><path id="kity_path_31" fill="none" stroke="rgb(115, 191, 118)" stroke-width="1" d="M89.00000838190317,365.5000022277236A84.5,227,0,0,1,173.50000838190317,138.5000022277236"></path><path id="kity_path_33" fill="none" stroke="rgb(115, 191, 118)" stroke-width="1" d="M300.50000838190317,138.5000022277236C308.50000838190317,138.5000022277236,308.50000838190317,93.5000022277236,316.50000838190317,93.5000022277236"></path><path id="kity_path_35" fill="none" stroke="rgb(115, 191, 118)" stroke-width="1" d="M376.50000838190317,93.5000022277236C384.50000838190317,93.5000022277236,384.50000838190317,54.5000022277236,392.50000838190317,54.5000022277236"></path><path id="kity_path_37" fill="none" stroke="rgb(115, 191, 118)" stroke-width="1" d="M451.50000838190317,54.5000022277236C459.50000838190317,54.5000022277236,459.50000838190317,28.5000022277236,467.50000838190317,28.5000022277236"></path><path id="kity_path_39" fill="none" stroke="rgb(115, 191, 118)" stroke-width="1" d="M451.50000838190317,54.5000022277236C459.50000838190317,54.5000022277236,459.50000838190317,54.5000022277236,467.50000838190317,54.5000022277236"></path><path id="kity_path_41" fill="none" stroke="rgb(115, 191, 118)" stroke-width="1" d="M451.50000838190317,54.5000022277236C459.50000838190317,54.5000022277236,459.50000838190317,80.5000022277236,467.50000838190317,80.5000022277236"></path><path id="kity_path_43" fill="none" stroke="rgb(115, 191, 118)" stroke-width="1" d="M376.50000838190317,93.5000022277236C384.50000838190317,93.5000022277236,384.50000838190317,132.5000022277236,392.50000838190317,132.5000022277236"></path><path id="kity_path_45" fill="none" stroke="rgb(115, 191, 118)" stroke-width="1" d="M451.50000838190317,132.5000022277236C459.50000838190317,132.5000022277236,459.50000838190317,106.5000022277236,467.50000838190317,106.5000022277236"></path><path id="kity_path_47" fill="none" stroke="rgb(115, 191, 118)" stroke-width="1" d="M451.50000838190317,132.5000022277236C459.50000838190317,132.5000022277236,459.50000838190317,132.5000022277236,467.50000838190317,132.5000022277236"></path><path id="kity_path_49" fill="none" stroke="rgb(115, 191, 118)" stroke-width="1" d="M451.50000838190317,132.5000022277236C459.50000838190317,132.5000022277236,459.50000838190317,158.5000022277236,467.50000838190317,158.5000022277236"></path><path id="kity_path_51" fill="none" stroke="rgb(115, 191, 118)" stroke-width="1" d="M300.50000838190317,138.5000022277236C308.50000838190317,138.5000022277236,308.50000838190317,184.5000022277236,316.50000838190317,184.5000022277236"></path><path id="kity_path_53" fill="none" stroke="rgb(115, 191, 118)" stroke-width="1" d="M89.00000838190317,365.5000022277236A84.5,17,0,0,1,173.50000838190317,348.5000022277236"></path><path id="kity_path_55" fill="none" stroke="rgb(115, 191, 118)" stroke-width="1" d="M313.50000838190317,348.5000022277236C321.50000838190317,348.5000022277236,321.50000838190317,244.5000022277236,329.50000838190317,244.5000022277236"></path><path id="kity_path_57" fill="none" stroke="rgb(115, 191, 118)" stroke-width="1" d="M424.50000838190317,244.5000022277236C432.50000838190317,244.5000022277236,432.50000838190317,218.5000022277236,440.50000838190317,218.5000022277236"></path><path id="kity_path_59" fill="none" stroke="rgb(115, 191, 118)" stroke-width="1" d="M424.50000838190317,244.5000022277236C432.50000838190317,244.5000022277236,432.50000838190317,244.5000022277236,440.50000838190317,244.5000022277236"></path><path id="kity_path_61" fill="none" stroke="rgb(115, 191, 118)" stroke-width="1" d="M424.50000838190317,244.5000022277236C432.50000838190317,244.5000022277236,432.50000838190317,270.5000022277236,440.50000838190317,270.5000022277236"></path><path id="kity_path_63" fill="none" stroke="rgb(115, 191, 118)" stroke-width="1" d="M313.50000838190317,348.5000022277236C321.50000838190317,348.5000022277236,321.50000838190317,335.5000022277236,329.50000838190317,335.5000022277236"></path><path id="kity_path_65" fill="none" stroke="rgb(115, 191, 118)" stroke-width="1" d="M425.50000838190317,335.5000022277236C433.50000838190317,335.5000022277236,433.50000838190317,296.5000022277236,441.50000838190317,296.5000022277236"></path><path id="kity_path_67" fill="none" stroke="rgb(115, 191, 118)" stroke-width="1" d="M425.50000838190317,335.5000022277236C433.50000838190317,335.5000022277236,433.50000838190317,322.5000022277236,441.50000838190317,322.5000022277236"></path><path id="kity_path_69" fill="none" stroke="rgb(115, 191, 118)" stroke-width="1" d="M425.50000838190317,335.5000022277236C433.50000838190317,335.5000022277236,433.50000838190317,348.5000022277236,441.50000838190317,348.5000022277236"></path><path id="kity_path_71" fill="none" stroke="rgb(115, 191, 118)" stroke-width="1" d="M425.50000838190317,335.5000022277236C433.50000838190317,335.5000022277236,433.50000838190317,374.5000022277236,441.50000838190317,374.5000022277236"></path><path id="kity_path_73" fill="none" stroke="rgb(115, 191, 118)" stroke-width="1" d="M313.50000838190317,348.5000022277236C321.50000838190317,348.5000022277236,321.50000838190317,413.5000022277236,329.50000838190317,413.5000022277236"></path><path id="kity_path_75" fill="none" stroke="rgb(115, 191, 118)" stroke-width="1" d="M412.50000838190317,413.5000022277236C420.50000838190317,413.5000022277236,420.50000838190317,400.5000022277236,428.50000838190317,400.5000022277236"></path><path id="kity_path_77" fill="none" stroke="rgb(115, 191, 118)" stroke-width="1" d="M412.50000838190317,413.5000022277236C420.50000838190317,413.5000022277236,420.50000838190317,426.5000022277236,428.50000838190317,426.5000022277236"></path><path id="kity_path_79" fill="none" stroke="rgb(115, 191, 118)" stroke-width="1" d="M313.50000838190317,348.5000022277236C321.50000838190317,348.5000022277236,321.50000838190317,452.5000022277236,329.50000838190317,452.5000022277236"></path><path id="kity_path_81" fill="none" stroke="rgb(115, 191, 118)" stroke-width="1" d="M460.50000838190317,452.5000022277236C468.50000838190317,452.5000022277236,468.50000838190317,452.5000022277236,476.50000838190317,452.5000022277236"></path><path id="kity_path_83" fill="none" stroke="rgb(115, 191, 118)" stroke-width="1" d="M89.00000838190317,365.5000022277236A84.5,227,0,0,0,173.50000838190317,592.5000022277236"></path><path id="kity_path_85" fill="none" stroke="rgb(115, 191, 118)" stroke-width="1" d="M328.50000838190317,592.5000022277236C336.50000838190317,592.5000022277236,336.50000838190317,486.5000022277236,344.50000838190317,486.5000022277236"></path><path id="kity_path_87" fill="none" stroke="rgb(115, 191, 118)" stroke-width="1" d="M475.50000838190317,486.5000022277236C483.50000838190317,486.5000022277236,483.50000838190317,486.5000022277236,491.50000838190317,486.5000022277236"></path><path id="kity_path_89" fill="none" stroke="rgb(115, 191, 118)" stroke-width="1" d="M328.50000838190317,592.5000022277236C336.50000838190317,592.5000022277236,336.50000838190317,571.5000022277236,344.50000838190317,571.5000022277236"></path><path id="kity_path_91" fill="none" stroke="rgb(115, 191, 118)" stroke-width="1" d="M499.50000838190317,571.5000022277236C507.50000838190317,571.5000022277236,507.50000838190317,526.5000022277236,515.5000083819032,526.5000022277236"></path><path id="kity_path_93" fill="none" stroke="rgb(115, 191, 118)" stroke-width="1" d="M598.5000083819032,526.5000022277236C606.5000083819032,526.5000022277236,606.5000083819032,513.5000022277236,614.5000083819032,513.5000022277236"></path><path id="kity_path_95" fill="none" stroke="rgb(115, 191, 118)" stroke-width="1" d="M598.5000083819032,526.5000022277236C606.5000083819032,526.5000022277236,606.5000083819032,539.5000022277236,614.5000083819032,539.5000022277236"></path><path id="kity_path_97" fill="none" stroke="rgb(115, 191, 118)" stroke-width="1" d="M499.50000838190317,571.5000022277236C507.50000838190317,571.5000022277236,507.50000838190317,578.5000022277236,515.5000083819032,578.5000022277236"></path><path id="kity_path_99" fill="none" stroke="rgb(115, 191, 118)" stroke-width="1" d="M599.5000083819032,578.5000022277236C607.5000083819032,578.5000022277236,607.5000083819032,565.5000022277236,615.5000083819032,565.5000022277236"></path><path id="kity_path_101" fill="none" stroke="rgb(115, 191, 118)" stroke-width="1" d="M599.5000083819032,578.5000022277236C607.5000083819032,578.5000022277236,607.5000083819032,591.5000022277236,615.5000083819032,591.5000022277236"></path><path id="kity_path_103" fill="none" stroke="rgb(115, 191, 118)" stroke-width="1" d="M499.50000838190317,571.5000022277236C507.50000838190317,571.5000022277236,507.50000838190317,617.5000022277236,515.5000083819032,617.5000022277236"></path><path id="kity_path_105" fill="none" stroke="rgb(115, 191, 118)" stroke-width="1" d="M575.5000083819032,617.5000022277236C583.5000083819032,617.5000022277236,583.5000083819032,617.5000022277236,591.5000083819032,617.5000022277236"></path><path id="kity_path_107" fill="none" stroke="rgb(115, 191, 118)" stroke-width="1" d="M328.50000838190317,592.5000022277236C336.50000838190317,592.5000022277236,336.50000838190317,698.5000022277236,344.50000838190317,698.5000022277236"></path><path id="kity_path_109" fill="none" stroke="rgb(115, 191, 118)" stroke-width="1" d="M404.50000838190317,698.5000022277236C412.50000838190317,698.5000022277236,412.50000838190317,668.5000022277236,420.50000838190317,668.5000022277236"></path><path id="kity_path_111" fill="none" stroke="rgb(115, 191, 118)" stroke-width="1" d="M492.50000838190317,668.5000022277236C500.50000838190317,668.5000022277236,500.50000838190317,642.5000022277236,508.50000838190317,642.5000022277236"></path><path id="kity_path_113" fill="none" stroke="rgb(115, 191, 118)" stroke-width="1" d="M492.50000838190317,668.5000022277236C500.50000838190317,668.5000022277236,500.50000838190317,668.5000022277236,508.50000838190317,668.5000022277236"></path><path id="kity_path_115" fill="none" stroke="rgb(115, 191, 118)" stroke-width="1" d="M492.50000838190317,668.5000022277236C500.50000838190317,668.5000022277236,500.50000838190317,694.5000022277236,508.50000838190317,694.5000022277236"></path><path id="kity_path_117" fill="none" stroke="rgb(115, 191, 118)" stroke-width="1" d="M404.50000838190317,698.5000022277236C412.50000838190317,698.5000022277236,412.50000838190317,724.5000022277236,420.50000838190317,724.5000022277236"></path></g><g id="minder_node1"><path id="node_outline1" fill="rgb(115, 191, 118)" stroke="rgb(115, 191, 118)" d="M25.50000838190317,351.5000022277236h127a5,5,0,0,1,5,5v18a5,5,0,0,1,-5,5h-127a5,5,0,0,1,-5,-5v-18a5,5,0,0,1,5,-5z" stroke-width="3"></path><g id="node_text1" fill="white"><text id="kity_text_22" text-rendering="inherit" font-size="16" dy=".8em" y="355.1000021919608" x="32.50000838190317">农业育种模型库</text></g></g><g id="kity_g_12"><path id="kity_path_13" fill="none" stroke="none" d="M32.50000838190317,365.5000022277236h0v0h0z"></path></g><g id="kity_g_14"><path id="kity_path_15" fill="none" stroke="none" d="M32.50000838190317,365.5000022277236h0v0h0z"></path><path id="kity_path_16" fill="none" stroke="none"></path></g><g id="minder_node2"><g id="node_expander11" style="cursor: pointer;"><path id="kity_path_287" fill="white" stroke="gray" d="M174.5000104084611,138.49999884516A6,6,0,1,1,162.5000104084611,138.49999884516A6,6,0,1,1,174.5000104084611,138.49999884516"></path><path id="kity_path_288" fill="none" stroke="gray" d="M164.0000104084611,138.49999884516L173.0000104084611,138.49999884516"></path></g><path id="node_outline12" fill="rgb(238, 246, 238)" stroke="rgb(115, 191, 118)" d="M178.50001081079245,125.49999884516001h119a3,3,0,0,1,3,3v20a3,3,0,0,1,-3,3h-119a3,3,0,0,1,-3,-3v-20a3,3,0,0,1,3,-3z" stroke-width="1"></path><g id="node_text12" fill="black"><text id="kity_text_139" text-rendering="inherit" font-size="14" dy=".8em" y="129.39999881386757" x="195.50001081079245">通用机器学习</text></g></g><g id="minder_node3"><g id="node_expander9" style="cursor: pointer;"><path id="kity_path_281" fill="white" stroke="gray" d="M316.500012524426,93.49999817460775A6,6,0,1,1,304.500012524426,93.49999817460775A6,6,0,1,1,316.500012524426,93.49999817460775"></path><path id="kity_path_282" fill="none" stroke="gray" d="M306.000012524426,93.49999817460775L315.000012524426,93.49999817460775"></path></g><path id="node_outline10" fill="none" stroke="none" d="M321.50001268833876,84.49999817460775h50a5,5,0,0,1,5,5v8a5,5,0,0,1,-5,5h-50a5,5,0,0,1,-5,-5v-8a5,5,0,0,1,5,-5z"></path><g id="node_text10" fill="black"><text id="kity_text_135" text-rendering="inherit" font-size="12" dy=".8em" y="85.69999814778566" x="321.50001268833876">数据处理</text></g></g><g id="minder_node4"><g id="node_expander4" style="cursor: pointer;"><path id="kity_path_266" fill="white" stroke="gray" d="M392.50001365691423,54.49999759346247A6,6,0,1,1,380.50001365691423,54.49999759346247A6,6,0,1,1,392.50001365691423,54.49999759346247"></path><path id="kity_path_267" fill="none" stroke="gray" d="M382.00001365691423,54.49999759346247L391.00001365691423,54.49999759346247"></path></g><path id="node_outline5" fill="none" stroke="none" d="M397.500013820827,45.49999759346247h49a5,5,0,0,1,5,5v8a5,5,0,0,1,-5,5h-49a5,5,0,0,1,-5,-5v-8a5,5,0,0,1,5,-5z"></path><g id="node_text5" fill="black"><text id="kity_text_125" text-rendering="inherit" font-size="12" dy=".8em" y="46.69999756664038" x="397.500013820827">表示学习</text></g></g><g id="minder_node5"><g id="node_expander1" display="none" style="cursor: pointer;"><path id="kity_path_257" fill="white" stroke="gray" d="M467.5000147745013,28.499997206032276A6,6,0,1,1,455.5000147745013,28.499997206032276A6,6,0,1,1,467.5000147745013,28.499997206032276"></path><path id="kity_path_258" fill="none" stroke="gray"></path></g><path id="node_outline2" fill="none" stroke="none" d="M472.5000149384141,19.499997206032276h61a5,5,0,0,1,5,5v8a5,5,0,0,1,-5,5h-61a5,5,0,0,1,-5,-5v-8a5,5,0,0,1,5,-5z"></path><g id="node_text2" fill="black"><text id="kity_text_119" text-rendering="inherit" font-size="12" dy=".8em" y="20.699997179210186" x="472.5000149384141">自动编码器</text></g></g><g id="minder_node6"><g id="node_expander2" display="none" style="cursor: pointer;"><path id="kity_path_260" fill="white" stroke="gray" d="M467.5000147745013,54.49999759346247A6,6,0,1,1,455.5000147745013,54.49999759346247A6,6,0,1,1,467.5000147745013,54.49999759346247"></path><path id="kity_path_261" fill="none" stroke="gray"></path></g><path id="node_outline3" fill="none" stroke="none" d="M472.5000149384141,45.49999759346247h74a5,5,0,0,1,5,5v8a5,5,0,0,1,-5,5h-74a5,5,0,0,1,-5,-5v-8a5,5,0,0,1,5,-5z"></path><g id="node_text3" fill="black"><text id="kity_text_121" text-rendering="inherit" font-size="12" dy=".8em" y="46.69999756664038" x="472.5000149384141">线性判别分析</text></g></g><g id="minder_node7"><g id="node_expander3" display="none" style="cursor: pointer;"><path id="kity_path_263" fill="white" stroke="gray" d="M467.5000147745013,80.49999798089266A6,6,0,1,1,455.5000147745013,80.49999798089266A6,6,0,1,1,467.5000147745013,80.49999798089266"></path><path id="kity_path_264" fill="none" stroke="gray"></path></g><path id="node_outline4" fill="none" stroke="none" d="M472.5000149384141,71.49999798089266h61a5,5,0,0,1,5,5v8a5,5,0,0,1,-5,5h-61a5,5,0,0,1,-5,-5v-8a5,5,0,0,1,5,-5z"></path><g id="node_text4" fill="black"><text id="kity_text_123" text-rendering="inherit" font-size="12" dy=".8em" y="72.69999795407057" x="472.5000149384141">主成分分析</text></g></g><g id="minder_node8"><g id="node_expander8" style="cursor: pointer;"><path id="kity_path_278" fill="white" stroke="gray" d="M392.50001365691423,132.49999875575304A6,6,0,1,1,380.50001365691423,132.49999875575304A6,6,0,1,1,392.50001365691423,132.49999875575304"></path><path id="kity_path_279" fill="none" stroke="gray" d="M382.00001365691423,132.49999875575304L391.00001365691423,132.49999875575304"></path></g><path id="node_outline9" fill="none" stroke="none" d="M397.500013820827,123.49999875575304h49a5,5,0,0,1,5,5v8a5,5,0,0,1,-5,5h-49a5,5,0,0,1,-5,-5v-8a5,5,0,0,1,5,-5z"></path><g id="node_text9" fill="black"><text id="kity_text_133" text-rendering="inherit" font-size="12" dy=".8em" y="124.69999872893095" x="397.500013820827">数据增广</text></g></g><g id="minder_node9"><g id="node_expander5" display="none" style="cursor: pointer;"><path id="kity_path_269" fill="white" stroke="gray" d="M467.5000147745013,106.49999836832285A6,6,0,1,1,455.5000147745013,106.49999836832285A6,6,0,1,1,467.5000147745013,106.49999836832285"></path><path id="kity_path_270" fill="none" stroke="gray"></path></g><path id="node_outline6" fill="none" stroke="none" d="M472.5000149384141,97.49999836832285h38a5,5,0,0,1,5,5v8a5,5,0,0,1,-5,5h-38a5,5,0,0,1,-5,-5v-8a5,5,0,0,1,5,-5z"></path><g id="node_text6" fill="black"><text id="kity_text_127" text-rendering="inherit" font-size="12" dy=".8em" y="98.69999834150076" x="472.5000149384141">弱增强</text></g></g><g id="minder_node10"><g id="node_expander6" display="none" style="cursor: pointer;"><path id="kity_path_272" fill="white" stroke="gray" d="M467.5000147745013,132.49999875575304A6,6,0,1,1,455.5000147745013,132.49999875575304A6,6,0,1,1,467.5000147745013,132.49999875575304"></path><path id="kity_path_273" fill="none" stroke="gray"></path></g><path id="node_outline7" fill="none" stroke="none" d="M472.5000149384141,123.49999875575304h37a5,5,0,0,1,5,5v8a5,5,0,0,1,-5,5h-37a5,5,0,0,1,-5,-5v-8a5,5,0,0,1,5,-5z"></path><g id="node_text7" fill="black"><text id="kity_text_129" text-rendering="inherit" font-size="12" dy=".8em" y="124.69999872893095" x="472.5000149384141">强增强</text></g></g><g id="minder_node11"><g id="node_expander7" display="none" style="cursor: pointer;"><path id="kity_path_275" fill="white" stroke="gray" d="M467.5000147745013,158.49999914318323A6,6,0,1,1,455.5000147745013,158.49999914318323A6,6,0,1,1,467.5000147745013,158.49999914318323"></path><path id="kity_path_276" fill="none" stroke="gray"></path></g><path id="node_outline8" fill="none" stroke="none" d="M472.5000149384141,149.49999914318323h64a5,5,0,0,1,5,5v8a5,5,0,0,1,-5,5h-64a5,5,0,0,1,-5,-5v-8a5,5,0,0,1,5,-5z"></path><g id="node_text8" fill="black"><text id="kity_text_131" text-rendering="inherit" font-size="12" dy=".8em" y="150.69999911636114" x="472.5000149384141">mix up增强</text></g></g><g id="minder_node12"><g id="node_expander10" display="none" style="cursor: pointer;"><path id="kity_path_284" fill="white" stroke="gray" d="M316.500012524426,184.49999953061342A6,6,0,1,1,304.500012524426,184.49999953061342A6,6,0,1,1,316.500012524426,184.49999953061342"></path><path id="kity_path_285" fill="none" stroke="gray"></path></g><path id="node_outline11" fill="none" stroke="none" d="M321.50001268833876,175.49999953061342h49a5,5,0,0,1,5,5v8a5,5,0,0,1,-5,5h-49a5,5,0,0,1,-5,-5v-8a5,5,0,0,1,5,-5z"></path><g id="node_text11" fill="black"><text id="kity_text_137" text-rendering="inherit" font-size="12" dy=".8em" y="176.69999950379133" x="321.50001268833876">常用模型</text></g></g><g id="minder_node13"><g id="node_expander26" style="cursor: pointer;"><path id="kity_path_332" fill="white" stroke="gray" d="M174.5000104084611,348.50000197440386A6,6,0,1,1,162.5000104084611,348.50000197440386A6,6,0,1,1,174.5000104084611,348.50000197440386"></path><path id="kity_path_333" fill="none" stroke="gray" d="M164.0000104084611,348.50000197440386L173.0000104084611,348.50000197440386"></path></g><path id="node_outline27" fill="rgb(238, 246, 238)" stroke="rgb(115, 191, 118)" d="M178.50001081079245,335.50000197440386h132a3,3,0,0,1,3,3v20a3,3,0,0,1,-3,3h-132a3,3,0,0,1,-3,-3v-20a3,3,0,0,1,3,-3z" stroke-width="1"></path><g id="node_text27" fill="black"><text id="kity_text_169" text-rendering="inherit" font-size="14" dy=".8em" y="339.4000019431114" x="195.50001081079245">多模态机器学习</text></g></g><g id="minder_node14"><g id="node_expander15" style="cursor: pointer;"><path id="kity_path_299" fill="white" stroke="gray" d="M329.5000127181411,244.5000004246831A6,6,0,1,1,317.5000127181411,244.5000004246831A6,6,0,1,1,329.5000127181411,244.5000004246831"></path><path id="kity_path_300" fill="none" stroke="gray" d="M319.0000127181411,244.5000004246831L328.0000127181411,244.5000004246831"></path></g><path id="node_outline16" fill="none" stroke="none" d="M334.50001288205385,235.5000004246831h85a5,5,0,0,1,5,5v8a5,5,0,0,1,-5,5h-85a5,5,0,0,1,-5,-5v-8a5,5,0,0,1,5,-5z"></path><g id="node_text16" fill="black"><text id="kity_text_147" text-rendering="inherit" font-size="12" dy=".8em" y="236.700000397861" x="334.50001288205385">多模态融合模型</text></g></g><g id="minder_node15"><g id="node_expander12" display="none" style="cursor: pointer;"><path id="kity_path_290" fill="white" stroke="gray" d="M440.50001437216997,218.5000000372529A6,6,0,1,1,428.50001437216997,218.5000000372529A6,6,0,1,1,440.50001437216997,218.5000000372529"></path><path id="kity_path_291" fill="none" stroke="gray"></path></g><path id="node_outline13" fill="none" stroke="none" d="M445.50001453608274,209.5000000372529h170a5,5,0,0,1,5,5v8a5,5,0,0,1,-5,5h-170a5,5,0,0,1,-5,-5v-8a5,5,0,0,1,5,-5z"></path><g id="node_text13" fill="black"><text id="kity_text_141" text-rendering="inherit" font-size="12" dy=".8em" y="210.7000000104308" x="445.50001453608274">CMML：综合半监督多模态学习</text></g></g><g id="minder_node16"><g id="node_expander13" display="none" style="cursor: pointer;"><path id="kity_path_293" fill="white" stroke="gray" d="M440.50001437216997,244.5000004246831A6,6,0,1,1,428.50001437216997,244.5000004246831A6,6,0,1,1,440.50001437216997,244.5000004246831"></path><path id="kity_path_294" fill="none" stroke="gray"></path></g><path id="node_outline14" fill="none" stroke="none" d="M445.50001453608274,235.5000004246831h253a5,5,0,0,1,5,5v8a5,5,0,0,1,-5,5h-253a5,5,0,0,1,-5,-5v-8a5,5,0,0,1,5,-5z"></path><g id="node_text14" fill="black"><text id="kity_text_143" text-rendering="inherit" font-size="12" dy=".8em" y="236.700000397861" x="445.50001453608274">LMF：基于模态特定因子的低秩多模态融合分类</text></g></g><g id="minder_node17"><g id="node_expander14" display="none" style="cursor: pointer;"><path id="kity_path_296" fill="white" stroke="gray" d="M440.50001437216997,270.5000008121133A6,6,0,1,1,428.50001437216997,270.5000008121133A6,6,0,1,1,440.50001437216997,270.5000008121133"></path><path id="kity_path_297" fill="none" stroke="gray"></path></g><path id="node_outline15" fill="none" stroke="none" d="M445.50001453608274,261.5000008121133h183a5,5,0,0,1,5,5v8a5,5,0,0,1,-5,5h-183a5,5,0,0,1,-5,-5v-8a5,5,0,0,1,5,-5z"></path><g id="node_text15" fill="black"><text id="kity_text_145" text-rendering="inherit" font-size="12" dy=".8em" y="262.7000007852912" x="445.50001453608274">TMC：可信预测的多模态融合策略</text></g></g><g id="minder_node18"><g id="node_expander20" style="cursor: pointer;"><path id="kity_path_314" fill="white" stroke="gray" d="M329.5000127181411,335.50000178068876A6,6,0,1,1,317.5000127181411,335.50000178068876A6,6,0,1,1,329.5000127181411,335.50000178068876"></path><path id="kity_path_315" fill="none" stroke="gray" d="M319.0000127181411,335.50000178068876L328.0000127181411,335.50000178068876"></path></g><path id="node_outline21" fill="none" stroke="none" d="M334.50001288205385,326.50000178068876h86a5,5,0,0,1,5,5v8a5,5,0,0,1,-5,5h-86a5,5,0,0,1,-5,-5v-8a5,5,0,0,1,5,-5z"></path><g id="node_text21" fill="black"><text id="kity_text_157" text-rendering="inherit" font-size="12" dy=".8em" y="327.7000017538667" x="334.50001288205385">跨模态检索模型</text></g></g><g id="minder_node19"><g id="node_expander16" display="none" style="cursor: pointer;"><path id="kity_path_302" fill="white" stroke="gray" d="M441.50001438707113,296.5000011995435A6,6,0,1,1,429.50001438707113,296.5000011995435A6,6,0,1,1,441.50001438707113,296.5000011995435"></path><path id="kity_path_303" fill="none" stroke="gray"></path></g><path id="node_outline17" fill="none" stroke="none" d="M446.5000145509839,287.5000011995435h200a5,5,0,0,1,5,5v8a5,5,0,0,1,-5,5h-200a5,5,0,0,1,-5,-5v-8a5,5,0,0,1,5,-5z"></path><g id="node_text17" fill="black"><text id="kity_text_149" text-rendering="inherit" font-size="12" dy=".8em" y="288.7000011727214" x="446.5000145509839">VSE++ ：为图像和文本提取全局特征</text></g></g><g id="minder_node20"><g id="node_expander17" display="none" style="cursor: pointer;"><path id="kity_path_305" fill="white" stroke="gray" d="M441.50001438707113,322.50000158697367A6,6,0,1,1,429.50001438707113,322.50000158697367A6,6,0,1,1,441.50001438707113,322.50000158697367"></path><path id="kity_path_306" fill="none" stroke="gray"></path></g><path id="node_outline18" fill="none" stroke="none" d="M446.5000145509839,313.50000158697367h274a5,5,0,0,1,5,5v8a5,5,0,0,1,-5,5h-274a5,5,0,0,1,-5,-5v-8a5,5,0,0,1,5,-5z"></path><g id="node_text18" fill="black"><text id="kity_text_151" text-rendering="inherit" font-size="12" dy=".8em" y="314.7000015601516" x="446.5000145509839">SCAN：从图像区域和文本单词中学习图文匹配打分</text></g></g><g id="minder_node21"><g id="node_expander18" display="none" style="cursor: pointer;"><path id="kity_path_308" fill="white" stroke="gray" d="M441.50001438707113,348.50000197440386A6,6,0,1,1,429.50001438707113,348.50000197440386A6,6,0,1,1,441.50001438707113,348.50000197440386"></path><path id="kity_path_309" fill="none" stroke="gray"></path></g><path id="node_outline19" fill="none" stroke="none" d="M446.5000145509839,339.50000197440386h324a5,5,0,0,1,5,5v8a5,5,0,0,1,-5,5h-324a5,5,0,0,1,-5,-5v-8a5,5,0,0,1,5,-5z"></path><g id="node_text19" fill="black"><text id="kity_text_153" text-rendering="inherit" font-size="12" dy=".8em" y="340.70000194758177" x="446.5000145509839">IMRAM：跨模态图像-文本检索的迭代匹配与递归注意力机制</text></g></g><g id="minder_node22"><g id="node_expander19" display="none" style="cursor: pointer;"><path id="kity_path_311" fill="white" stroke="gray" d="M441.50001438707113,374.50000236183405A6,6,0,1,1,429.50001438707113,374.50000236183405A6,6,0,1,1,441.50001438707113,374.50000236183405"></path><path id="kity_path_312" fill="none" stroke="gray"></path></g><path id="node_outline20" fill="none" stroke="none" d="M446.5000145509839,365.50000236183405h236a5,5,0,0,1,5,5v8a5,5,0,0,1,-5,5h-236a5,5,0,0,1,-5,-5v-8a5,5,0,0,1,5,-5z"></path><g id="node_text20" fill="black"><text id="kity_text_155" text-rendering="inherit" font-size="12" dy=".8em" y="366.70000233501196" x="446.5000145509839">SGRAF：图像-文本匹配的相似性推理和过滤</text></g></g><g id="minder_node23"><g id="node_expander23" style="cursor: pointer;"><path id="kity_path_323" fill="white" stroke="gray" d="M329.5000127181411,413.50000294297934A6,6,0,1,1,317.5000127181411,413.50000294297934A6,6,0,1,1,329.5000127181411,413.50000294297934"></path><path id="kity_path_324" fill="none" stroke="gray" d="M319.0000127181411,413.50000294297934L328.0000127181411,413.50000294297934"></path></g><path id="node_outline24" fill="none" stroke="none" d="M334.50001288205385,404.50000294297934h73a5,5,0,0,1,5,5v8a5,5,0,0,1,-5,5h-73a5,5,0,0,1,-5,-5v-8a5,5,0,0,1,5,-5z"></path><g id="node_text24" fill="black"><text id="kity_text_163" text-rendering="inherit" font-size="12" dy=".8em" y="405.70000291615725" x="334.50001288205385">图文生成模型</text></g></g><g id="minder_node24"><g id="node_expander21" display="none" style="cursor: pointer;"><path id="kity_path_317" fill="white" stroke="gray" d="M428.50001419335604,400.50000274926424A6,6,0,1,1,416.50001419335604,400.50000274926424A6,6,0,1,1,428.50001419335604,400.50000274926424"></path><path id="kity_path_318" fill="none" stroke="gray"></path></g><path id="node_outline22" fill="none" stroke="none" d="M433.5000143572688,391.50000274926424h306a5,5,0,0,1,5,5v8a5,5,0,0,1,-5,5h-306a5,5,0,0,1,-5,-5v-8a5,5,0,0,1,5,-5z"></path><g id="node_text22" fill="black"><text id="kity_text_159" text-rendering="inherit" font-size="12" dy=".8em" y="392.70000272244215" x="433.5000143572688">ShowAttendTell：带视觉注意力机制的神经图像描述生成</text></g></g><g id="minder_node25"><g id="node_expander22" display="none" style="cursor: pointer;"><path id="kity_path_320" fill="white" stroke="gray" d="M428.50001419335604,426.50000313669443A6,6,0,1,1,416.50001419335604,426.50000313669443A6,6,0,1,1,428.50001419335604,426.50000313669443"></path><path id="kity_path_321" fill="none" stroke="gray"></path></g><path id="node_outline23" fill="none" stroke="none" d="M433.5000143572688,417.50000313669443h202a5,5,0,0,1,5,5v8a5,5,0,0,1,-5,5h-202a5,5,0,0,1,-5,-5v-8a5,5,0,0,1,5,-5z"></path><g id="node_text23" fill="black"><text id="kity_text_161" text-rendering="inherit" font-size="12" dy=".8em" y="418.70000310987234" x="433.5000143572688">AoANet：用于图像描述的注意力机制</text></g></g><g id="minder_node26"><g id="node_expander25" style="cursor: pointer;"><path id="kity_path_329" fill="white" stroke="gray" d="M329.5000127181411,452.5000035241246A6,6,0,1,1,317.5000127181411,452.5000035241246A6,6,0,1,1,329.5000127181411,452.5000035241246"></path><path id="kity_path_330" fill="none" stroke="gray" d="M319.0000127181411,452.5000035241246L328.0000127181411,452.5000035241246"></path></g><path id="node_outline26" fill="none" stroke="none" d="M334.50001288205385,443.5000035241246h121a5,5,0,0,1,5,5v8a5,5,0,0,1,-5,5h-121a5,5,0,0,1,-5,-5v-8a5,5,0,0,1,5,-5z"></path><g id="node_text26" fill="black"><text id="kity_text_167" text-rendering="inherit" font-size="12" dy=".8em" y="444.70000349730253" x="334.50001288205385">多模态交互可视化模型</text></g></g><g id="minder_node27"><g id="node_expander24" display="none" style="cursor: pointer;"><path id="kity_path_326" fill="white" stroke="gray" d="M476.5000149086118,452.5000035241246A6,6,0,1,1,464.5000149086118,452.5000035241246A6,6,0,1,1,476.5000149086118,452.5000035241246"></path><path id="kity_path_327" fill="none" stroke="gray"></path></g><path id="node_outline25" fill="none" stroke="none" d="M481.50001507252455,443.5000035241246h204a5,5,0,0,1,5,5v8a5,5,0,0,1,-5,5h-204a5,5,0,0,1,-5,-5v-8a5,5,0,0,1,5,-5z"></path><g id="node_text25" fill="black"><text id="kity_text_165" text-rendering="inherit" font-size="12" dy=".8em" y="444.70000349730253" x="481.50001507252455">VL InterpreT：多模态交互可视化工具</text></g></g><g id="minder_node28"><g id="node_expander44" style="cursor: pointer;"><path id="kity_path_386" fill="white" stroke="gray" d="M174.5000104084611,592.5000056102872A6,6,0,1,1,162.5000104084611,592.5000056102872A6,6,0,1,1,174.5000104084611,592.5000056102872"></path><path id="kity_path_387" fill="none" stroke="gray" d="M164.0000104084611,592.5000056102872L173.0000104084611,592.5000056102872"></path></g><path id="node_outline45" fill="rgb(238, 246, 238)" stroke="rgb(115, 191, 118)" d="M178.50001081079245,579.5000056102872h147a3,3,0,0,1,3,3v20a3,3,0,0,1,-3,3h-147a3,3,0,0,1,-3,-3v-20a3,3,0,0,1,3,-3z" stroke-width="1"></path><g id="node_text45" fill="black"><text id="kity_text_205" text-rendering="inherit" font-size="14" dy=".8em" y="583.4000055789948" x="195.50001081079245">农业育种机器学习</text></g></g><g id="minder_node29"><g id="node_expander28" style="cursor: pointer;"><path id="kity_path_338" fill="white" stroke="gray" d="M344.5000129416585,486.5000040307641A6,6,0,1,1,332.5000129416585,486.5000040307641A6,6,0,1,1,344.5000129416585,486.5000040307641"></path><path id="kity_path_339" fill="none" stroke="gray" d="M334.0000129416585,486.5000040307641L343.0000129416585,486.5000040307641"></path></g><path id="node_outline29" fill="none" stroke="none" d="M349.50001310557127,477.5000040307641h121a5,5,0,0,1,5,5v8a5,5,0,0,1,-5,5h-121a5,5,0,0,1,-5,-5v-8a5,5,0,0,1,5,-5z"></path><g id="node_text29" fill="black"><text id="kity_text_173" text-rendering="inherit" font-size="12" dy=".8em" y="478.700004003942" x="349.50001310557127">应用于基因的机器学习</text></g></g><g id="minder_node30"><g id="node_expander27" display="none" style="cursor: pointer;"><path id="kity_path_335" fill="white" stroke="gray" d="M491.5000151321292,486.5000040307641A6,6,0,1,1,479.5000151321292,486.5000040307641A6,6,0,1,1,491.5000151321292,486.5000040307641"></path><path id="kity_path_336" fill="none" stroke="gray"></path></g><path id="node_outline28" fill="none" stroke="none" d="M496.50001529604197,477.5000040307641h164a5,5,0,0,1,5,5v8a5,5,0,0,1,-5,5h-164a5,5,0,0,1,-5,-5v-8a5,5,0,0,1,5,-5z"></path><g id="node_text28" fill="black"><text id="kity_text_171" text-rendering="inherit" font-size="12" dy=".8em" y="478.700004003942" x="496.50001529604197">CropGBM全基因组选择工具箱</text></g></g><g id="minder_node31"><g id="node_expander37" style="cursor: pointer;"><path id="kity_path_365" fill="white" stroke="gray" d="M344.5000129416585,571.5000052973628A6,6,0,1,1,332.5000129416585,571.5000052973628A6,6,0,1,1,344.5000129416585,571.5000052973628"></path><path id="kity_path_366" fill="none" stroke="gray" d="M334.0000129416585,571.5000052973628L343.0000129416585,571.5000052973628"></path></g><path id="node_outline38" fill="none" stroke="none" d="M349.50001310557127,562.5000052973628h145a5,5,0,0,1,5,5v8a5,5,0,0,1,-5,5h-145a5,5,0,0,1,-5,-5v-8a5,5,0,0,1,5,-5z"></path><g id="node_text38" fill="black"><text id="kity_text_191" text-rendering="inherit" font-size="12" dy=".8em" y="563.7000052705407" x="349.50001310557127">应用于表型图像的机器学习</text></g></g><g id="minder_node32"><g id="node_expander31" style="cursor: pointer;"><path id="kity_path_347" fill="white" stroke="gray" d="M515.5000154897571,526.5000046268106A6,6,0,1,1,503.50001548975706,526.5000046268106A6,6,0,1,1,515.5000154897571,526.5000046268106"></path><path id="kity_path_348" fill="none" stroke="gray" d="M505.00001548975706,526.5000046268106L514.0000154897571,526.5000046268106"></path></g><path id="node_outline32" fill="none" stroke="none" d="M520.5000156536698,517.5000046268106h73a5,5,0,0,1,5,5v8a5,5,0,0,1,-5,5h-73a5,5,0,0,1,-5,-5v-8a5,5,0,0,1,5,-5z"></path><g id="node_text32" fill="black"><text id="kity_text_179" text-rendering="inherit" font-size="12" dy=".8em" y="518.7000045999885" x="520.5000156536698">目标检测模型</text></g></g><g id="minder_node33"><g id="node_expander29" display="none" style="cursor: pointer;"><path id="kity_path_341" fill="white" stroke="gray" d="M614.500016964972,513.5000044330955A6,6,0,1,1,602.500016964972,513.5000044330955A6,6,0,1,1,614.500016964972,513.5000044330955"></path><path id="kity_path_342" fill="none" stroke="gray"></path></g><path id="node_outline30" fill="none" stroke="none" d="M619.5000171288848,504.50000443309546h211a5,5,0,0,1,5,5v8a5,5,0,0,1,-5,5h-211a5,5,0,0,1,-5,-5v-8a5,5,0,0,1,5,-5z"></path><g id="node_text30" fill="black"><text id="kity_text_175" text-rendering="inherit" font-size="12" dy=".8em" y="505.70000440627337" x="619.5000171288848">Faster R-CNN：快速区域卷积神经网络</text></g></g><g id="minder_node34"><g id="node_expander30" display="none" style="cursor: pointer;"><path id="kity_path_344" fill="white" stroke="gray" d="M614.500016964972,539.5000048205256A6,6,0,1,1,602.500016964972,539.5000048205256A6,6,0,1,1,614.500016964972,539.5000048205256"></path><path id="kity_path_345" fill="none" stroke="gray"></path></g><path id="node_outline31" fill="none" stroke="none" d="M619.5000171288848,530.5000048205256h130a5,5,0,0,1,5,5v8a5,5,0,0,1,-5,5h-130a5,5,0,0,1,-5,-5v-8a5,5,0,0,1,5,-5z"></path><g id="node_text31" fill="black"><text id="kity_text_177" text-rendering="inherit" font-size="12" dy=".8em" y="531.7000047937036" x="619.5000171288848">YOLOv7：即时目标检测</text></g></g><g id="minder_node35"><g id="node_expander34" style="cursor: pointer;"><path id="kity_path_356" fill="white" stroke="gray" d="M515.5000154897571,578.5000054016709A6,6,0,1,1,503.50001548975706,578.5000054016709A6,6,0,1,1,515.5000154897571,578.5000054016709"></path><path id="kity_path_357" fill="none" stroke="gray" d="M505.00001548975706,578.5000054016709L514.0000154897571,578.5000054016709"></path></g><path id="node_outline35" fill="none" stroke="none" d="M520.5000156536698,569.5000054016709h74a5,5,0,0,1,5,5v8a5,5,0,0,1,-5,5h-74a5,5,0,0,1,-5,-5v-8a5,5,0,0,1,5,-5z"></path><g id="node_text35" fill="black"><text id="kity_text_185" text-rendering="inherit" font-size="12" dy=".8em" y="570.7000053748488" x="520.5000156536698">语义分割模型</text></g></g><g id="minder_node36"><g id="node_expander32" display="none" style="cursor: pointer;"><path id="kity_path_350" fill="white" stroke="gray" d="M615.5000169798732,565.5000052079558A6,6,0,1,1,603.5000169798732,565.5000052079558A6,6,0,1,1,615.5000169798732,565.5000052079558"></path><path id="kity_path_351" fill="none" stroke="gray"></path></g><path id="node_outline33" fill="none" stroke="none" d="M620.500017143786,556.5000052079558h194a5,5,0,0,1,5,5v8a5,5,0,0,1,-5,5h-194a5,5,0,0,1,-5,-5v-8a5,5,0,0,1,5,-5z"></path><g id="node_text33" fill="black"><text id="kity_text_181" text-rendering="inherit" font-size="12" dy=".8em" y="557.7000051811337" x="620.500017143786">DeepLabv3+：深度全卷积神经网络</text></g></g><g id="minder_node37"><g id="node_expander33" display="none" style="cursor: pointer;"><path id="kity_path_353" fill="white" stroke="gray" d="M615.5000169798732,591.500005595386A6,6,0,1,1,603.5000169798732,591.500005595386A6,6,0,1,1,615.5000169798732,591.500005595386"></path><path id="kity_path_354" fill="none" stroke="gray"></path></g><path id="node_outline34" fill="none" stroke="none" d="M620.500017143786,582.500005595386h123a5,5,0,0,1,5,5v8a5,5,0,0,1,-5,5h-123a5,5,0,0,1,-5,-5v-8a5,5,0,0,1,5,-5z"></path><g id="node_text34" fill="black"><text id="kity_text_183" text-rendering="inherit" font-size="12" dy=".8em" y="583.7000055685639" x="620.500017143786">HRNet：高分辨率网络</text></g></g><g id="minder_node38"><g id="node_expander36" style="cursor: pointer;"><path id="kity_path_362" fill="white" stroke="gray" d="M515.5000154897571,617.5000059828162A6,6,0,1,1,503.50001548975706,617.5000059828162A6,6,0,1,1,515.5000154897571,617.5000059828162"></path><path id="kity_path_363" fill="none" stroke="gray" d="M505.00001548975706,617.5000059828162L514.0000154897571,617.5000059828162"></path></g><path id="node_outline37" fill="none" stroke="none" d="M520.5000156536698,608.5000059828162h50a5,5,0,0,1,5,5v8a5,5,0,0,1,-5,5h-50a5,5,0,0,1,-5,-5v-8a5,5,0,0,1,5,-5z"></path><g id="node_text37" fill="black"><text id="kity_text_189" text-rendering="inherit" font-size="12" dy=".8em" y="609.7000059559941" x="520.5000156536698">追踪模型</text></g></g><g id="minder_node39"><g id="node_expander35" display="none" style="cursor: pointer;"><path id="kity_path_359" fill="white" stroke="gray" d="M591.5000166222453,617.5000059828162A6,6,0,1,1,579.5000166222453,617.5000059828162A6,6,0,1,1,591.5000166222453,617.5000059828162"></path><path id="kity_path_360" fill="none" stroke="gray"></path></g><path id="node_outline36" fill="none" stroke="none" d="M596.5000167861581,608.5000059828162h168a5,5,0,0,1,5,5v8a5,5,0,0,1,-5,5h-168a5,5,0,0,1,-5,-5v-8a5,5,0,0,1,5,-5z"></path><g id="node_text36" fill="black"><text id="kity_text_187" text-rendering="inherit" font-size="12" dy=".8em" y="609.7000059559941" x="596.5000167861581">SiamRPN++：多尺度跟踪网络</text></g></g><g id="minder_node40"><g id="node_expander43" style="cursor: pointer;"><path id="kity_path_383" fill="white" stroke="gray" d="M344.5000129416585,698.5000071898103A6,6,0,1,1,332.5000129416585,698.5000071898103A6,6,0,1,1,344.5000129416585,698.5000071898103"></path><path id="kity_path_384" fill="none" stroke="gray" d="M334.0000129416585,698.5000071898103L343.0000129416585,698.5000071898103"></path></g><path id="node_outline44" fill="none" stroke="none" d="M349.50001310557127,689.5000071898103h50a5,5,0,0,1,5,5v8a5,5,0,0,1,-5,5h-50a5,5,0,0,1,-5,-5v-8a5,5,0,0,1,5,-5z"></path><g id="node_text44" fill="black"><text id="kity_text_203" text-rendering="inherit" font-size="12" dy=".8em" y="690.7000071629882" x="349.50001310557127">基础模型</text></g></g><g id="minder_node41"><g id="node_expander41" style="cursor: pointer;"><path id="kity_path_377" fill="white" stroke="gray" d="M420.50001407414675,668.5000067427754A6,6,0,1,1,408.50001407414675,668.5000067427754A6,6,0,1,1,420.50001407414675,668.5000067427754"></path><path id="kity_path_378" fill="none" stroke="gray" d="M410.00001407414675,668.5000067427754L419.00001407414675,668.5000067427754"></path></g><path id="node_outline42" fill="none" stroke="none" d="M425.5000142380595,659.5000067427754h62a5,5,0,0,1,5,5v8a5,5,0,0,1,-5,5h-62a5,5,0,0,1,-5,-5v-8a5,5,0,0,1,5,-5z"></path><g id="node_text42" fill="black"><text id="kity_text_199" text-rendering="inherit" font-size="12" dy=".8em" y="660.7000067159534" x="425.5000142380595">视觉大模型</text></g></g><g id="minder_node42"><g id="node_expander38" display="none" style="cursor: pointer;"><path id="kity_path_368" fill="white" stroke="gray" d="M508.50001538544893,642.5000063553452A6,6,0,1,1,496.50001538544893,642.5000063553452A6,6,0,1,1,508.50001538544893,642.5000063553452"></path><path id="kity_path_369" fill="none" stroke="gray"></path></g><path id="node_outline39" fill="none" stroke="none" d="M513.5000155493617,633.5000063553452h91a5,5,0,0,1,5,5v8a5,5,0,0,1,-5,5h-91a5,5,0,0,1,-5,-5v-8a5,5,0,0,1,5,-5z"></path><g id="node_text39" fill="black"><text id="kity_text_193" text-rendering="inherit" font-size="12" dy=".8em" y="634.7000063285232" x="513.5000155493617">视觉大模型-分类</text></g></g><g id="minder_node43"><g id="node_expander39" display="none" style="cursor: pointer;"><path id="kity_path_371" fill="white" stroke="gray" d="M508.50001538544893,668.5000067427754A6,6,0,1,1,496.50001538544893,668.5000067427754A6,6,0,1,1,508.50001538544893,668.5000067427754"></path><path id="kity_path_372" fill="none" stroke="gray"></path></g><path id="node_outline40" fill="none" stroke="none" d="M513.5000155493617,659.5000067427754h90a5,5,0,0,1,5,5v8a5,5,0,0,1,-5,5h-90a5,5,0,0,1,-5,-5v-8a5,5,0,0,1,5,-5z"></path><g id="node_text40" fill="black"><text id="kity_text_195" text-rendering="inherit" font-size="12" dy=".8em" y="660.7000067159534" x="513.5000155493617">视觉大模型-检测</text></g></g><g id="minder_node44"><g id="node_expander40" display="none" style="cursor: pointer;"><path id="kity_path_374" fill="white" stroke="gray" d="M508.50001538544893,694.5000071302056A6,6,0,1,1,496.50001538544893,694.5000071302056A6,6,0,1,1,508.50001538544893,694.5000071302056"></path><path id="kity_path_375" fill="none" stroke="gray"></path></g><path id="node_outline41" fill="none" stroke="none" d="M513.5000155493617,685.5000071302056h90a5,5,0,0,1,5,5v8a5,5,0,0,1,-5,5h-90a5,5,0,0,1,-5,-5v-8a5,5,0,0,1,5,-5z"></path><g id="node_text41" fill="black"><text id="kity_text_197" text-rendering="inherit" font-size="12" dy=".8em" y="686.7000071033835" x="513.5000155493617">视觉大模型-分割</text></g></g><g id="minder_node45"><g id="node_expander42" display="none" style="cursor: pointer;"><path id="kity_path_380" fill="white" stroke="gray" d="M420.50001407414675,724.5000075772405A6,6,0,1,1,408.50001407414675,724.5000075772405A6,6,0,1,1,420.50001407414675,724.5000075772405"></path><path id="kity_path_381" fill="none" stroke="gray"></path></g><path id="node_outline43" fill="none" stroke="none" d="M425.50001461058855,711.5000075772405h98a5,5,0,0,1,5,5v16a5,5,0,0,1,-5,5h-98a5,5,0,0,1,-5,-5v-16a5,5,0,0,1,5,-5z"></path><g id="node_text43" fill="black"><text id="kity_text_201" text-rendering="inherit" font-size="12" dy=".8em" y="716.7000075504184" x="450.50001461058855">多模态大模型</text></g><g id="node_progress1"><path id="kity_path_207" fill="#FFED83" stroke="none" d="M445.0000143945217,725.000007584691A9,9,0,1,1,427.0000143945217,725.000007584691A9,9,0,1,1,445.0000143945217,725.000007584691"></path><path id="kity_path_208" fill="#43BC00" stroke="none" d="M436.0000143945217,725.000007584691"></path><path id="kity_path_209" fill="#8E8E8E" stroke="none" d="M436.0000142455101,718.0000074356794c4.418,0,8,3.582,8,8h1c0,-5.523,-3.477,-10,-9,-10S427.0000142455101,720.4770074356794,427.0000142455101,726.0000074356794h1C428.0000142455101,721.5820074356794,431.5820142455101,718.0000074356794,436.0000142455101,718.0000074356794z"></path><path id="kity_path_211" fill="#EEE" stroke="none" d="M451.8120143945217,732.896007584691l-6.75,6.75l-4.5,-4.5L442.2500143945217,733.459007584691l2.812,2.803l5.062,-5.053L451.8120143945217,732.896007584691z" display="none"></path><path id="kity_path_210" fill="url(#kity_linearGradient_17)" stroke="none" d="M436.0000142455101,715.0000074356794C430.4770142455101,715.0000074356794,426.0000142455101,719.4770074356794,426.0000142455101,725.0000074356794c0,5.523,4.477,10,10,10s10,-4.477,10,-10C446.0000142455101,719.4770074356794,441.5230142455101,715.0000074356794,436.0000142455101,715.0000074356794zM436.0000142455101,733.0000074356794c-4.418,0,-8,-3.582,-8,-8s3.582,-8,8,-8s8,3.582,8,8S440.4180142455101,733.0000074356794,436.0000142455101,733.0000074356794z"></path></g></g></g></g></svg>